# Made in Blockbench 4.12.2
mtllib WoodResourceIcon.mtl

o PalePlank
v 0.4219628312953619 0.24040751401030913 0.32946127742545994
v 0.465003479654063 0.256220580346889 0.08370235180545818
v 0.40564705726785544 0.11694849971644719 0.318660013264662
v 0.4486877056265566 0.13276156605302702 0.07290108764466025
v -0.43237193159905013 0.36569744824083494 0.1879001765161377
v -0.389331283240349 0.3815105145774147 -0.05785874910386407
v -0.4486877056265566 0.24223843394697298 0.17709891235533975
v -0.40564705726785544 0.25805150028355284 -0.068660013264662
vt 0.59375 1
vt 0.46875 1
vt 0.46875 0.9375
vt 0.59375 0.9375
vt 0.59375 0.84375
vt 0.59375 0.90625
vt 0.46875 0.90625
vt 0.46875 0.84375
vt 0 0.875
vt 0.4375 0.875
vt 0.4375 1
vt 0 1
vt 0.4375 0.71875
vt 0.4375 0.84375
vt 0 0.84375
vt 0 0.71875
vt 0.4375 0.625
vt 0.4375 0.6875
vt 0 0.6875
vt 0 0.625
vt 0.4375 0.59375
vt 0 0.59375
vt 0 0.53125
vt 0.4375 0.53125
vn 0.9763825861650425 -0.1431884962634581 0.16178411532493972
vn -0.9763825861650425 0.1431884962634581 -0.16178411532493972
vn 0.1305261922200517 0.9876721143508956 0.08641011328638351
vn -0.1305261922200517 -0.9876721143508956 -0.08641011328638351
vn -0.17216259343480464 -0.0632522653463193 0.983035702480007
vn 0.17216259343480464 0.0632522653463193 -0.983035702480007
usemtl m_b02cb129-e5ea-f594-fd42-9aaab2f2406f
f 2/1/1 1/2/1 3/3/1 4/4/1
f 7/5/2 5/6/2 6/7/2 8/8/2
f 5/9/3 1/10/3 2/11/3 6/12/3
f 4/13/4 3/14/4 7/15/4 8/16/4
f 3/17/5 1/18/5 5/19/5 7/20/5
f 6/21/6 2/22/6 4/23/6 8/24/6
o DarkPlank
v 0.4514328278363774 0.12945797535828016 0.11992198083575699
v 0.44858880102863674 0.12964367338729552 -0.13006177269186503
v 0.4351791402549124 0.00551924445036487 0.12001482985026503
v 0.43233511344717174 0.0057049424793802275 -0.12996892367735696
v -0.41608142586570673 0.24323378842853505 0.12987607466284892
v -0.4189254526734474 0.2434194864575504 -0.12010767886477308
v -0.43233511344717174 0.11929505752061978 0.12996892367735696
v -0.4351791402549124 0.11948075554963514 -0.12001482985026503
vt 0.59375 1
vt 0.46875 1
vt 0.46875 0.9375
vt 0.59375 0.9375
vt 0.59375 0.84375
vt 0.59375 0.90625
vt 0.46875 0.90625
vt 0.46875 0.84375
vt 0 0.875
vt 0.4375 0.875
vt 0.4375 1
vt 0 1
vt 0.4375 0.71875
vt 0.4375 0.84375
vt 0 0.84375
vt 0 0.71875
vt 0.4375 0.625
vt 0.4375 0.6875
vt 0 0.6875
vt 0 0.625
vt 0.4375 0.59375
vt 0 0.59375
vt 0 0.53125
vt 0.4375 0.53125
vn 0.9914448613738105 -0.13002950065171992 -0.011376107230962216
vn -0.9914448613738105 0.13002950065171992 0.011376107230962216
vn 0.1300295006517199 0.9915098472633225 -0.000742792116064377
vn -0.1300295006517199 -0.9915098472633225 0.000742792116064377
vn 0.011376107230962409 -0.0007427921160614314 0.9999350141104881
vn -0.011376107230962409 0.0007427921160614314 -0.9999350141104881
usemtl m_568b9261-354f-9cef-1e0b-45f531e32cc1
f 10/25/7 9/26/7 11/27/7 12/28/7
f 15/29/8 13/30/8 14/31/8 16/32/8
f 13/33/9 9/34/9 10/35/9 14/36/9
f 12/37/10 11/38/10 15/39/10 16/40/10
f 11/41/11 9/42/11 13/43/11 15/44/11
f 14/45/12 10/46/12 12/47/12 16/48/12