{"accessors":[{"bufferView":0,"byteOffset":0,"componentType":5126,"count":3291,"max":[0.680838644504547,1.05000102519989,0.567771315574646],"min":[-0.68612843751907,-0.00350339710712,-0.45927327871323],"normalized":false,"type":"VEC3"},{"bufferView":1,"byteOffset":0,"componentType":5126,"count":3291,"max":[1,0.996289610862732,1,1],"min":[-1,-0.98330098390579,-1,-1],"normalized":false,"type":"VEC4"},{"bufferView":2,"byteOffset":0,"componentType":5126,"count":3291,"max":[1,1,1],"min":[-1,-1,-1],"normalized":false,"type":"VEC3"},{"bufferView":3,"byteOffset":0,"componentType":5126,"count":3291,"max":[0.856520533561707,0.969204306602478],"min":[0.0306536555290222,0.0299176573753357],"normalized":false,"type":"VEC2"},{"bufferView":4,"byteOffset":0,"componentType":5123,"count":5160,"max":[2508],"min":[0],"normalized":false,"type":"SCALAR"},{"bufferView":5,"byteOffset":0,"componentType":5126,"count":516,"max":[0.140000015497208,0.245000004768372,0.245000004768372],"min":[-0.14000003039837,-0.24499994516373,-0.24500001966953],"normalized":false,"type":"VEC3"},{"bufferView":6,"byteOffset":0,"componentType":5126,"count":516,"max":[1,0.62712025642395,1,1],"min":[-0.7071715593338,-0.62714117765427,-0.99731361865997,-1],"normalized":false,"type":"VEC4"},{"bufferView":7,"byteOffset":0,"componentType":5126,"count":516,"max":[1,1,1],"min":[-1,-1,-1],"normalized":false,"type":"VEC3"},{"bufferView":8,"byteOffset":0,"componentType":5126,"count":516,"max":[0.338071376085281,0.193485736846924],"min":[0.259637534618378,0.0424443483352661],"normalized":false,"type":"VEC2"},{"bufferView":9,"byteOffset":0,"componentType":5123,"count":900,"max":[515],"min":[0],"normalized":false,"type":"SCALAR"},{"bufferView":10,"byteOffset":0,"componentType":5126,"count":1802,"max":[0.395505368709564,0.654322028160095,0.869959712028503],"min":[-0.31500002741814,-0.00000011920929,-0.31499999761581],"normalized":false,"type":"VEC3"},{"bufferView":11,"byteOffset":0,"componentType":5126,"count":1802,"max":[1,0.9962278008461,1,1],"min":[-1,-0.96489280462265,-1,-1],"normalized":false,"type":"VEC4"},{"bufferView":12,"byteOffset":0,"componentType":5126,"count":1802,"max":[1,1,1],"min":[-1,-1,-1],"normalized":false,"type":"VEC3"},{"bufferView":13,"byteOffset":0,"componentType":5126,"count":1802,"max":[0.969330549240112,0.969204306602478],"min":[0.0518856048583984,0.0299176573753357],"normalized":false,"type":"VEC2"},{"bufferView":14,"byteOffset":0,"componentType":5123,"count":3450,"max":[1576],"min":[0],"normalized":false,"type":"SCALAR"},{"bufferView":15,"byteOffset":0,"componentType":5126,"count":322,"max":[0.342441946268082,1.11267745494843,0.360063761472702],"min":[-0.34244003891945,-0.09999983757734,-0.36006385087967],"normalized":false,"type":"VEC3"},{"bufferView":16,"byteOffset":0,"componentType":5126,"count":322,"max":[1,0.151724800467491,0.950896859169006,1],"min":[0.309303313493729,-0.1517281383276,-0.95089823007584,-1],"normalized":false,"type":"VEC4"},{"bufferView":17,"byteOffset":0,"componentType":5126,"count":322,"max":[0.999039947986603,1,0.999412417411804],"min":[-0.99438178539276,-1,-0.99941295385361],"normalized":false,"type":"VEC3"},{"bufferView":18,"byteOffset":0,"componentType":5126,"count":322,"max":[0.792661547660828,0.7259920835495],"min":[0.145758390426636,0.148715376853943],"normalized":false,"type":"VEC2"},{"bufferView":19,"byteOffset":0,"componentType":5123,"count":660,"max":[188],"min":[0],"normalized":false,"type":"SCALAR"},{"bufferView":20,"byteOffset":0,"componentType":5126,"count":322,"max":[0.342441946268082,1.11267745494843,0.360063761472702],"min":[-0.34244003891945,-0.09999983757734,-0.36006385087967],"normalized":false,"type":"VEC3"},{"bufferView":21,"byteOffset":0,"componentType":5126,"count":322,"max":[1,0.151724800467491,0.950896859169006,1],"min":[0.309303313493729,-0.1517281383276,-0.95089823007584,-1],"normalized":false,"type":"VEC4"},{"bufferView":22,"byteOffset":0,"componentType":5126,"count":322,"max":[0.999039947986603,1,0.999412417411804],"min":[-0.99438178539276,-1,-0.99941295385361],"normalized":false,"type":"VEC3"},{"bufferView":23,"byteOffset":0,"componentType":5126,"count":322,"max":[0.792661547660828,0.7259920835495],"min":[0.145758390426636,0.148715376853943],"normalized":false,"type":"VEC2"},{"bufferView":24,"byteOffset":0,"componentType":5123,"count":660,"max":[188],"min":[0],"normalized":false,"type":"SCALAR"},{"bufferView":25,"byteOffset":0,"componentType":5126,"count":62,"max":[0.090369738638401,0.136645019054413,0.0950207784771919],"min":[-0.09037060290575,-0.09999983757734,-0.09502086788416],"normalized":false,"type":"VEC3"},{"bufferView":26,"byteOffset":0,"componentType":5126,"count":62,"max":[1,0.745320081710815,0.98810738325119,1],"min":[-0.82184511423111,-0.76404744386673,-0.98946315050125,-1],"normalized":false,"type":"VEC4"},{"bufferView":27,"byteOffset":0,"componentType":5126,"count":62,"max":[0.988740980625153,1,0.999412655830383],"min":[-0.98737180233002,-1,-0.99941432476044],"normalized":false,"type":"VEC3"},{"bufferView":28,"byteOffset":0,"componentType":5126,"count":62,"max":[0.792660415172577,0.195849552750587],"min":[0.651972234249115,0.148714423179626],"normalized":false,"type":"VEC2"},{"bufferView":29,"byteOffset":0,"componentType":5123,"count":114,"max":[48],"min":[0],"normalized":false,"type":"SCALAR"},{"bufferView":30,"byteOffset":0,"componentType":5126,"count":62,"max":[0.090369738638401,0.136645019054413,0.0950207784771919],"min":[-0.09037060290575,-0.09999983757734,-0.09502086788416],"normalized":false,"type":"VEC3"},{"bufferView":31,"byteOffset":0,"componentType":5126,"count":62,"max":[1,0.745320081710815,0.98810738325119,1],"min":[-0.82184511423111,-0.76404744386673,-0.98946315050125,-1],"normalized":false,"type":"VEC4"},{"bufferView":32,"byteOffset":0,"componentType":5126,"count":62,"max":[0.988740980625153,1,0.999412655830383],"min":[-0.98737180233002,-1,-0.99941432476044],"normalized":false,"type":"VEC3"},{"bufferView":33,"byteOffset":0,"componentType":5126,"count":62,"max":[0.792660415172577,0.195849552750587],"min":[0.651972234249115,0.148714423179626],"normalized":false,"type":"VEC2"},{"bufferView":34,"byteOffset":0,"componentType":5123,"count":114,"max":[48],"min":[0],"normalized":false,"type":"SCALAR"},{"bufferView":35,"byteOffset":0,"componentType":5126,"count":62,"max":[0.090369738638401,0.136645019054413,0.0950207784771919],"min":[-0.09037060290575,-0.09999983757734,-0.09502086788416],"normalized":false,"type":"VEC3"},{"bufferView":36,"byteOffset":0,"componentType":5126,"count":62,"max":[1,0.745320081710815,0.98810738325119,1],"min":[-0.82184511423111,-0.76404744386673,-0.98946315050125,-1],"normalized":false,"type":"VEC4"},{"bufferView":37,"byteOffset":0,"componentType":5126,"count":62,"max":[0.988740980625153,1,0.999412655830383],"min":[-0.98737180233002,-1,-0.99941432476044],"normalized":false,"type":"VEC3"},{"bufferView":38,"byteOffset":0,"componentType":5126,"count":62,"max":[0.792660415172577,0.195849552750587],"min":[0.651972234249115,0.148714423179626],"normalized":false,"type":"VEC2"},{"bufferView":39,"byteOffset":0,"componentType":5123,"count":114,"max":[48],"min":[0],"normalized":false,"type":"SCALAR"}],"asset":{"generator":"Godot Engine v4.3.stable.official@77dcf97d82cbfe4e4615475fa52ca03da645dbd8","version":"2.0"},"bufferViews":[{"buffer":0,"byteLength":39492,"byteOffset":0,"byteStride":12,"target":34962},{"buffer":0,"byteLength":52656,"byteOffset":39492,"byteStride":16,"target":34962},{"buffer":0,"byteLength":39492,"byteOffset":92148,"byteStride":12,"target":34962},{"buffer":0,"byteLength":26328,"byteOffset":131640,"byteStride":8,"target":34962},{"buffer":0,"byteLength":10320,"byteOffset":157968,"target":34963},{"buffer":0,"byteLength":6192,"byteOffset":168288,"byteStride":12,"target":34962},{"buffer":0,"byteLength":8256,"byteOffset":174480,"byteStride":16,"target":34962},{"buffer":0,"byteLength":6192,"byteOffset":182736,"byteStride":12,"target":34962},{"buffer":0,"byteLength":4128,"byteOffset":188928,"byteStride":8,"target":34962},{"buffer":0,"byteLength":1800,"byteOffset":193056,"target":34963},{"buffer":0,"byteLength":21624,"byteOffset":194856,"byteStride":12,"target":34962},{"buffer":0,"byteLength":28832,"byteOffset":216480,"byteStride":16,"target":34962},{"buffer":0,"byteLength":21624,"byteOffset":245312,"byteStride":12,"target":34962},{"buffer":0,"byteLength":14416,"byteOffset":266936,"byteStride":8,"target":34962},{"buffer":0,"byteLength":6900,"byteOffset":281352,"target":34963},{"buffer":0,"byteLength":3864,"byteOffset":288252,"byteStride":12,"target":34962},{"buffer":0,"byteLength":5152,"byteOffset":292116,"byteStride":16,"target":34962},{"buffer":0,"byteLength":3864,"byteOffset":297268,"byteStride":12,"target":34962},{"buffer":0,"byteLength":2576,"byteOffset":301132,"byteStride":8,"target":34962},{"buffer":0,"byteLength":1320,"byteOffset":303708,"target":34963},{"buffer":0,"byteLength":3864,"byteOffset":305028,"byteStride":12,"target":34962},{"buffer":0,"byteLength":5152,"byteOffset":308892,"byteStride":16,"target":34962},{"buffer":0,"byteLength":3864,"byteOffset":314044,"byteStride":12,"target":34962},{"buffer":0,"byteLength":2576,"byteOffset":317908,"byteStride":8,"target":34962},{"buffer":0,"byteLength":1320,"byteOffset":320484,"target":34963},{"buffer":0,"byteLength":744,"byteOffset":321804,"byteStride":12,"target":34962},{"buffer":0,"byteLength":992,"byteOffset":322548,"byteStride":16,"target":34962},{"buffer":0,"byteLength":744,"byteOffset":323540,"byteStride":12,"target":34962},{"buffer":0,"byteLength":496,"byteOffset":324284,"byteStride":8,"target":34962},{"buffer":0,"byteLength":228,"byteOffset":324780,"target":34963},{"buffer":0,"byteLength":744,"byteOffset":325008,"byteStride":12,"target":34962},{"buffer":0,"byteLength":992,"byteOffset":325752,"byteStride":16,"target":34962},{"buffer":0,"byteLength":744,"byteOffset":326744,"byteStride":12,"target":34962},{"buffer":0,"byteLength":496,"byteOffset":327488,"byteStride":8,"target":34962},{"buffer":0,"byteLength":228,"byteOffset":327984,"target":34963},{"buffer":0,"byteLength":744,"byteOffset":328212,"byteStride":12,"target":34962},{"buffer":0,"byteLength":992,"byteOffset":328956,"byteStride":16,"target":34962},{"buffer":0,"byteLength":744,"byteOffset":329948,"byteStride":12,"target":34962},{"buffer":0,"byteLength":496,"byteOffset":330692,"byteStride":8,"target":34962},{"buffer":0,"byteLength":228,"byteOffset":331188,"target":34963}],"buffers":[{"byteLength":331416,"uri":"LumberMill0.bin"}],"extensionsUsed":["GODOT_single_root"],"images":[{"uri":"textures%2Fhexagons_medieval_albedo000.png"},{"uri":"textures%2Fhexagons_medieval_albedo002.png"},{"uri":"textures%2Fhexagons_medieval_albedo003.png"}],"materials":[{"extensions":{},"name":"hexagons_medieval","pbrMetallicRoughness":{"baseColorFactor":[0.99999988079071,0.99999988079071,0.99999988079071,1],"baseColorTexture":{"index":0},"metallicFactor":0,"roughnessFactor":0.5}},{"extensions":{},"name":"hexagons_medieval2","pbrMetallicRoughness":{"baseColorFactor":[0.99999988079071,0.99999988079071,0.99999988079071,1],"baseColorTexture":{"index":1},"metallicFactor":0,"roughnessFactor":0.5}},{"extensions":{},"name":"hexagons_medieval3","pbrMetallicRoughness":{"baseColorFactor":[0.99999988079071,0.99999988079071,0.99999988079071,1],"baseColorTexture":{"index":2},"metallicFactor":0,"roughnessFactor":0.5}}],"meshes":[{"extras":{"targetNames":[]},"primitives":[{"attributes":{"NORMAL":2,"POSITION":0,"TANGENT":1,"TEXCOORD_0":3},"indices":4,"material":0,"mode":4}]},{"extras":{"targetNames":[]},"primitives":[{"attributes":{"NORMAL":7,"POSITION":5,"TANGENT":6,"TEXCOORD_0":8},"indices":9,"material":0,"mode":4}]},{"extras":{"targetNames":[]},"primitives":[{"attributes":{"NORMAL":12,"POSITION":10,"TANGENT":11,"TEXCOORD_0":13},"indices":14,"material":0,"mode":4}]},{"extras":{"targetNames":[]},"primitives":[{"attributes":{"NORMAL":17,"POSITION":15,"TANGENT":16,"TEXCOORD_0":18},"indices":19,"material":1,"mode":4}]},{"extras":{"targetNames":[]},"primitives":[{"attributes":{"NORMAL":22,"POSITION":20,"TANGENT":21,"TEXCOORD_0":23},"indices":24,"material":1,"mode":4}]},{"extras":{"targetNames":[]},"primitives":[{"attributes":{"NORMAL":27,"POSITION":25,"TANGENT":26,"TEXCOORD_0":28},"indices":29,"material":2,"mode":4}]},{"extras":{"targetNames":[]},"primitives":[{"attributes":{"NORMAL":32,"POSITION":30,"TANGENT":31,"TEXCOORD_0":33},"indices":34,"material":2,"mode":4}]},{"extras":{"targetNames":[]},"primitives":[{"attributes":{"NORMAL":37,"POSITION":35,"TANGENT":36,"TEXCOORD_0":38},"indices":39,"material":2,"mode":4}]}],"nodes":[{"children":[1,4,6,8,10,12],"name":"building_lumbermill_blue2"},{"children":[2,3],"mesh":0,"name":"building_lumbermill_blue"},{"mesh":1,"name":"building_lumbermill_saw_blue","translation":[0.279995679855347,0.280001044273376,0]},{"mesh":2,"name":"building_lumbermill_top_blue","translation":[-0.14000844955444,1.05000007152557,-0.13999988138676]},{"children":[5],"name":"tree_single_B2","scale":[0.5,0.5,0.5],"translation":[-0.368896484375,0,0.704345703125]},{"mesh":3,"name":"tree_single_B"},{"children":[7],"name":"tree_single_B3","scale":[0.5,0.5,0.5],"translation":[0.59332275390625,0,0.3787841796875]},{"mesh":4,"name":"tree_single_B4"},{"children":[9],"name":"tree_single_B_cut2","translation":[-0.14013671875,0,-0.51557922363281]},{"mesh":5,"name":"tree_single_B_cut"},{"children":[11],"name":"tree_single_B_cut4","translation":[-0.38214111328125,0,-0.62257385253906]},{"mesh":6,"name":"tree_single_B_cut3"},{"children":[13],"name":"tree_single_B_cut32","translation":[0.1103515625,0,-0.62568664550781]},{"mesh":7,"name":"tree_single_B_cut5"}],"samplers":[{"magFilter":9729,"minFilter":9987,"wrapS":10497,"wrapT":10497}],"scene":0,"scenes":[{"nodes":[0]}],"textures":[{"sampler":0,"source":0},{"sampler":0,"source":1},{"sampler":0,"source":2}]}