# MagicaVoxel @ Ephtracy

# group
o 

# material
mtllib pistol.mtl
usemtl palette

# normals
vn -1 0 0
vn 1 0 0
vn 0 0 1
vn 0 0 -1
vn 0 -1 0
vn 0 1 0

# texcoords
vt 0.974609 0.5
vt 0.978516 0.5
vt 0.982422 0.5
vt 0.986328 0.5
vt 0.990234 0.5
vt 0.994141 0.5

# verts
v -0.2 0 0
v -0.2 0 -0.7
v -0.2 0.1 0
v -0.2 0.1 -0.1
v -0.2 0.1 -0.6
v -0.2 0.1 -0.7
v -0.2 0.2 -0.2
v -0.2 0.2 -0.5
v -0.2 0.3 -0.4
v -0.2 0.3 -0.5
v -0.2 0.4 0
v -0.2 0.4 -0.1
v -0.2 0.4 -0.5
v -0.2 0.4 -0.6
v -0.2 0.5 -0.1
v -0.2 0.5 -0.2
v -0.2 0.7 0.6
v -0.2 0.7 0
v -0.2 0.7 -0.1
v -0.2 0.7 -0.4
v -0.2 0.7 -0.5
v -0.2 0.7 -0.6
v -0.2 0.8 1.8
v -0.2 0.8 0.6
v -0.2 0.8 -0.6
v -0.2 0.9 1.8
v -0.2 0.9 -0.2
v -0.2 0.9 -0.3
v -0.2 0.9 -0.4
v -0.2 0.9 -0.5
v -0.2 0.9 -0.6
v -0.2 1 0.5
v -0.2 1 0
v -0.2 1 -0.1
v -0.2 1 -0.2
v -0.2 1 -0.3
v -0.2 1 -0.4
v -0.2 1 -0.5
v -0.2 1.1 0.5
v -0.2 1.1 0
v -0.2 1.1 -0.1
v -0.2 1.1 -0.2
v -0.2 1.1 -0.3
v -0.2 1.1 -0.4
v -0.2 1.2 1.8
v -0.2 1.2 0.5
v -0.2 1.2 0
v -0.2 1.2 -0.1
v -0.2 1.2 -0.2
v -0.2 1.2 -0.3
v -0.2 1.2 -0.5
v -0.2 1.2 -0.6
v -0.2 1.3 -0.5
v -0.2 1.3 -0.6
v -0.1 0.1 -0.6
v -0.1 0.1 -0.7
v -0.1 0.2 -0.6
v -0.1 0.2 -0.7
v -0.1 0.4 0.4
v -0.1 0.4 0
v -0.1 0.4 -0.5
v -0.1 0.4 -0.6
v -0.1 0.4 -0.7
v -0.1 0.5 0.3
v -0.1 0.5 0.1
v -0.1 0.6 -0.5
v -0.1 0.6 -0.6
v -0.1 0.7 1.8
v -0.1 0.7 1.6
v -0.1 0.7 1.5
v -0.1 0.7 1.4
v -0.1 0.7 1.3
v -0.1 0.7 1.2
v -0.1 0.7 1.1
v -0.1 0.7 1
v -0.1 0.7 0.9
v -0.1 0.7 0.8
v -0.1 0.7 0.7
v -0.1 0.7 0.6
v -0.1 0.7 0.4
v -0.1 0.7 0.3
v -0.1 0.7 0.1
v -0.1 0.7 0
v -0.1 0.8 1.8
v -0.1 0.8 1.6
v -0.1 0.8 1.5
v -0.1 0.8 1.4
v -0.1 0.8 1.3
v -0.1 0.8 1.2
v -0.1 0.8 1.1
v -0.1 0.8 1
v -0.1 0.8 0.9
v -0.1 0.8 0.8
v -0.1 0.8 0.7
v -0.1 0.8 0.6
v -0.1 0.9 1.9
v -0.1 0.9 1.8
v -0.1 1.1 1.9
v -0.1 1.1 1.8
v -0.1 1.1 0.5
v -0.1 1.1 0
v -0.1 1.2 1.8
v -0.1 1.2 1.7
v -0.1 1.2 0.5
v -0.1 1.2 0
v -0.1 1.3 1.8
v -0.1 1.3 1.7
v 0.1 1.2 -0.5
v 0.1 1.2 -0.6
v 0.1 1.3 -0.5
v 0.1 1.3 -0.6
v -0.1 1.2 -0.5
v -0.1 1.2 -0.6
v -0.1 1.3 -0.5
v -0.1 1.3 -0.6
v 0.1 0.1 -0.6
v 0.1 0.1 -0.7
v 0.1 0.2 -0.6
v 0.1 0.2 -0.7
v 0.1 0.4 0.4
v 0.1 0.4 0
v 0.1 0.4 -0.5
v 0.1 0.4 -0.6
v 0.1 0.4 -0.7
v 0.1 0.5 0.3
v 0.1 0.5 0.1
v 0.1 0.6 -0.5
v 0.1 0.6 -0.6
v 0.1 0.7 1.8
v 0.1 0.7 1.6
v 0.1 0.7 1.5
v 0.1 0.7 1.4
v 0.1 0.7 1.3
v 0.1 0.7 1.2
v 0.1 0.7 1.1
v 0.1 0.7 1
v 0.1 0.7 0.9
v 0.1 0.7 0.8
v 0.1 0.7 0.7
v 0.1 0.7 0.6
v 0.1 0.7 0.4
v 0.1 0.7 0.3
v 0.1 0.7 0.1
v 0.1 0.7 0
v 0.1 0.8 1.8
v 0.1 0.8 1.6
v 0.1 0.8 1.5
v 0.1 0.8 1.4
v 0.1 0.8 1.3
v 0.1 0.8 1.2
v 0.1 0.8 1.1
v 0.1 0.8 1
v 0.1 0.8 0.9
v 0.1 0.8 0.8
v 0.1 0.8 0.7
v 0.1 0.8 0.6
v 0.1 0.9 1.9
v 0.1 0.9 1.8
v 0.1 1.1 1.9
v 0.1 1.1 1.8
v 0.1 1.2 1.8
v 0.1 1.2 1.7
v 0.1 1.3 1.8
v 0.1 1.3 1.7
v 0.2 0 0
v 0.2 0 -0.7
v 0.2 0.1 0
v 0.2 0.1 -0.1
v 0.2 0.1 -0.6
v 0.2 0.1 -0.7
v 0.2 0.2 -0.2
v 0.2 0.2 -0.5
v 0.2 0.3 -0.4
v 0.2 0.3 -0.5
v 0.2 0.4 0
v 0.2 0.4 -0.1
v 0.2 0.4 -0.5
v 0.2 0.4 -0.6
v 0.2 0.5 -0.1
v 0.2 0.5 -0.2
v 0.2 0.7 0.6
v 0.2 0.7 0
v 0.2 0.7 -0.1
v 0.2 0.7 -0.4
v 0.2 0.7 -0.5
v 0.2 0.7 -0.6
v 0.2 0.8 1.8
v 0.2 0.8 0.6
v 0.2 0.8 -0.6
v 0.2 0.9 1.8
v 0.2 0.9 -0.2
v 0.2 0.9 -0.3
v 0.2 0.9 -0.4
v 0.2 0.9 -0.5
v 0.2 0.9 -0.6
v 0.2 1 -0.1
v 0.2 1 -0.2
v 0.2 1 -0.3
v 0.2 1 -0.4
v 0.2 1 -0.5
v 0.2 1.1 0
v 0.2 1.1 -0.1
v 0.2 1.1 -0.2
v 0.2 1.1 -0.3
v 0.2 1.1 -0.4
v 0.2 1.2 1.8
v 0.2 1.2 0
v 0.2 1.2 -0.1
v 0.2 1.2 -0.2
v 0.2 1.2 -0.3
v 0.2 1.2 -0.5
v 0.2 1.2 -0.6
v 0.2 1.3 -0.5
v 0.2 1.3 -0.6
v -0.1 0.9 1.9
v -0.1 1.1 1.9
v 0.1 0.9 1.9
v 0.1 1.1 1.9
v -0.2 0.8 1.8
v -0.2 0.9 1.8
v -0.2 1.2 1.8
v -0.1 0.7 1.8
v -0.1 0.8 1.8
v -0.1 0.9 1.8
v -0.1 1.1 1.8
v -0.1 1.2 1.8
v -0.1 1.3 1.8
v 0.1 0.7 1.8
v 0.1 0.8 1.8
v 0.1 0.9 1.8
v 0.1 1.1 1.8
v 0.1 1.2 1.8
v 0.1 1.3 1.8
v 0.2 0.8 1.8
v 0.2 0.9 1.8
v 0.2 1.2 1.8
v -0.2 0.7 0.6
v -0.2 0.8 0.6
v -0.1 0.7 0.6
v -0.1 0.8 0.6
v 0.1 0.7 0.6
v 0.1 0.8 0.6
v 0.2 0.7 0.6
v 0.2 0.8 0.6
v -0.1 0.4 0.4
v -0.1 0.7 0.4
v 0.1 0.4 0.4
v 0.1 0.7 0.4
v -0.1 0.5 0.1
v -0.1 0.7 0.1
v 0.1 0.5 0.1
v 0.1 0.7 0.1
v -0.2 0 0
v -0.2 0.1 0
v -0.2 0.4 0
v -0.2 0.7 0
v -0.2 1.1 0
v -0.2 1.2 0
v -0.1 0.4 0
v -0.1 0.7 0
v -0.1 1.1 0
v -0.1 1.2 0
v 0.1 0.4 0
v 0.1 0.7 0
v 0.2 0 0
v 0.2 0.1 0
v 0.2 0.4 0
v 0.2 0.7 0
v -0.2 0.1 -0.1
v -0.2 0.4 -0.1
v 0.2 0.1 -0.1
v 0.2 0.4 -0.1
v -0.2 1.2 -0.5
v -0.2 1.3 -0.5
v -0.1 1.2 -0.5
v -0.1 1.3 -0.5
v 0.1 1.2 -0.5
v 0.1 1.3 -0.5
v 0.2 1.2 -0.5
v 0.2 1.3 -0.5
v -0.1 1.2 1.7
v -0.1 1.3 1.7
v 0.1 1.2 1.7
v 0.1 1.3 1.7
v -0.2 1.1 0.5
v -0.2 1.2 0.5
v -0.1 1.1 0.5
v -0.1 1.2 0.5
v -0.1 0.5 0.3
v -0.1 0.7 0.3
v 0.1 0.5 0.3
v 0.1 0.7 0.3
v -0.2 0.4 -0.5
v -0.2 0.7 -0.5
v -0.1 0.4 -0.5
v -0.1 0.6 -0.5
v -0.1 0.7 -0.5
v 0.1 0.4 -0.5
v 0.1 0.6 -0.5
v 0.1 0.7 -0.5
v 0.2 0.4 -0.5
v 0.2 0.7 -0.5
v -0.2 0.1 -0.6
v -0.2 0.4 -0.6
v -0.2 0.7 -0.6
v -0.2 0.8 -0.6
v -0.2 0.9 -0.6
v -0.2 1.2 -0.6
v -0.2 1.3 -0.6
v -0.1 0.1 -0.6
v -0.1 0.2 -0.6
v -0.1 0.4 -0.6
v -0.1 0.6 -0.6
v -0.1 0.8 -0.6
v -0.1 0.9 -0.6
v -0.1 1.1 -0.6
v -0.1 1.2 -0.6
v -0.1 1.3 -0.6
v 0.1 0.1 -0.6
v 0.1 0.2 -0.6
v 0.1 0.4 -0.6
v 0.1 0.6 -0.6
v 0.1 0.8 -0.6
v 0.1 0.9 -0.6
v 0.1 1.1 -0.6
v 0.1 1.2 -0.6
v 0.1 1.3 -0.6
v 0.2 0.1 -0.6
v 0.2 0.4 -0.6
v 0.2 0.7 -0.6
v 0.2 0.8 -0.6
v 0.2 0.9 -0.6
v 0.2 1.2 -0.6
v 0.2 1.3 -0.6
v -0.2 0 -0.7
v -0.2 0.1 -0.7
v -0.1 0.1 -0.7
v -0.1 0.2 -0.7
v -0.1 0.4 -0.7
v 0.1 0.1 -0.7
v 0.1 0.2 -0.7
v 0.1 0.4 -0.7
v 0.2 0 -0.7
v 0.2 0.1 -0.7
v -0.2 0 0
v 0.2 0 0
v -0.1 0 -0.2
v 0.1 0 -0.2
v -0.1 0 -0.3
v 0.1 0 -0.3
v -0.1 0 -0.6
v 0.1 0 -0.6
v -0.2 0 -0.7
v 0.2 0 -0.7
v -0.1 0.4 0.4
v 0.1 0.4 0.4
v -0.2 0.4 0
v -0.1 0.4 0
v 0.1 0.4 0
v 0.2 0.4 0
v -0.2 0.4 -0.1
v 0.2 0.4 -0.1
v -0.1 0.7 1.8
v 0.1 0.7 1.8
v -0.1 0.7 1.6
v 0.1 0.7 1.6
v -0.1 0.7 1.5
v 0.1 0.7 1.5
v -0.1 0.7 1.4
v 0.1 0.7 1.4
v -0.1 0.7 1.3
v 0.1 0.7 1.3
v -0.1 0.7 1.2
v 0.1 0.7 1.2
v -0.1 0.7 1.1
v 0.1 0.7 1.1
v -0.1 0.7 1
v 0.1 0.7 1
v -0.1 0.7 0.9
v 0.1 0.7 0.9
v -0.1 0.7 0.8
v 0.1 0.7 0.8
v -0.1 0.7 0.7
v 0.1 0.7 0.7
v -0.2 0.7 0.6
v -0.1 0.7 0.6
v 0.1 0.7 0.6
v 0.2 0.7 0.6
v -0.1 0.7 0.4
v 0.1 0.7 0.4
v -0.1 0.7 0.3
v 0.1 0.7 0.3
v -0.1 0.7 0.1
v 0.1 0.7 0.1
v -0.2 0.7 0
v -0.1 0.7 0
v 0.1 0.7 0
v 0.2 0.7 0
v -0.2 0.7 -0.5
v -0.1 0.7 -0.5
v 0.1 0.7 -0.5
v 0.2 0.7 -0.5
v -0.2 0.7 -0.6
v 0.2 0.7 -0.6
v -0.2 0.8 1.8
v -0.1 0.8 1.8
v 0.1 0.8 1.8
v 0.2 0.8 1.8
v -0.1 0.8 1.6
v 0.1 0.8 1.6
v -0.1 0.8 1.5
v 0.1 0.8 1.5
v -0.1 0.8 1.4
v 0.1 0.8 1.4
v -0.1 0.8 1.3
v 0.1 0.8 1.3
v -0.1 0.8 1.2
v 0.1 0.8 1.2
v -0.1 0.8 1.1
v 0.1 0.8 1.1
v -0.1 0.8 1
v 0.1 0.8 1
v -0.1 0.8 0.9
v 0.1 0.8 0.9
v -0.1 0.8 0.8
v 0.1 0.8 0.8
v -0.1 0.8 0.7
v 0.1 0.8 0.7
v -0.2 0.8 0.6
v -0.1 0.8 0.6
v 0.1 0.8 0.6
v 0.2 0.8 0.6
v -0.1 0.9 1.9
v 0.1 0.9 1.9
v -0.1 0.9 1.8
v 0.1 0.9 1.8
v -0.2 0.1 0
v 0.2 0.1 0
v -0.2 0.1 -0.1
v 0.2 0.1 -0.1
v -0.2 0.1 -0.6
v -0.1 0.1 -0.6
v 0.1 0.1 -0.6
v 0.2 0.1 -0.6
v -0.2 0.1 -0.7
v -0.1 0.1 -0.7
v 0.1 0.1 -0.7
v 0.2 0.1 -0.7
v -0.2 0.4 -0.5
v -0.1 0.4 -0.5
v 0.1 0.4 -0.5
v 0.2 0.4 -0.5
v -0.2 0.4 -0.6
v -0.1 0.4 -0.6
v 0.1 0.4 -0.6
v 0.2 0.4 -0.6
v -0.1 0.4 -0.7
v 0.1 0.4 -0.7
v -0.1 0.5 0.3
v 0.1 0.5 0.3
v -0.1 0.5 0.1
v 0.1 0.5 0.1
v -0.1 0.6 -0.5
v 0.1 0.6 -0.5
v -0.1 0.6 -0.6
v 0.1 0.6 -0.6
v -0.1 1.1 1.9
v 0.1 1.1 1.9
v -0.1 1.1 1.8
v 0.1 1.1 1.8
v -0.2 1.1 0.5
v -0.1 1.1 0.5
v -0.2 1.1 0
v -0.1 1.1 0
v -0.2 1.2 1.8
v -0.1 1.2 1.8
v 0.1 1.2 1.8
v 0.2 1.2 1.8
v -0.1 1.2 1.7
v 0.1 1.2 1.7
v -0.2 1.2 0.5
v -0.1 1.2 0.5
v 0 1.2 0.5
v -0.2 1.2 0
v -0.1 1.2 0
v 0 1.2 0
v 0.1 1.2 0
v 0.2 1.2 0
v -0.2 1.2 -0.1
v -0.1 1.2 -0.1
v 0.1 1.2 -0.1
v 0.2 1.2 -0.1
v -0.2 1.2 -0.2
v -0.1 1.2 -0.2
v 0.1 1.2 -0.2
v 0.2 1.2 -0.2
v -0.2 1.2 -0.3
v -0.1 1.2 -0.3
v 0.1 1.2 -0.3
v 0.2 1.2 -0.3
v -0.2 1.2 -0.5
v -0.1 1.2 -0.5
v 0.1 1.2 -0.5
v 0.2 1.2 -0.5
v -0.1 1.2 -0.6
v 0.1 1.2 -0.6
v -0.1 1.3 1.8
v 0.1 1.3 1.8
v -0.1 1.3 1.7
v 0.1 1.3 1.7
v -0.2 1.3 -0.5
v -0.1 1.3 -0.5
v 0.1 1.3 -0.5
v 0.2 1.3 -0.5
v -0.2 1.3 -0.6
v -0.1 1.3 -0.6
v 0.1 1.3 -0.6
v 0.2 1.3 -0.6

# faces
f 3/3/1 2/3/1 1/3/1
f 4/3/1 2/3/1 3/3/1
f 5/3/1 2/3/1 4/3/1
f 6/3/1 2/3/1 5/3/1
f 7/4/1 5/4/1 4/4/1
f 8/4/1 5/4/1 7/4/1
f 9/3/1 8/3/1 7/3/1
f 10/4/1 5/4/1 8/4/1
f 10/3/1 8/3/1 9/3/1
f 12/4/1 7/4/1 4/4/1
f 13/4/1 5/4/1 10/4/1
f 13/4/1 10/4/1 9/4/1
f 14/4/1 5/4/1 13/4/1
f 15/4/1 12/4/1 11/4/1
f 15/4/1 7/4/1 12/4/1
f 16/3/1 9/3/1 7/3/1
f 16/4/1 7/4/1 15/4/1
f 18/4/1 15/4/1 11/4/1
f 19/3/1 16/3/1 15/3/1
f 19/4/1 15/4/1 18/4/1
f 20/3/1 9/3/1 16/3/1
f 20/3/1 16/3/1 19/3/1
f 20/4/1 13/4/1 9/4/1
f 21/4/1 13/4/1 20/4/1
f 24/4/1 19/4/1 18/4/1
f 24/4/1 22/4/1 21/4/1
f 24/4/1 21/4/1 20/4/1
f 24/4/1 20/4/1 19/4/1
f 24/4/1 18/4/1 17/4/1
f 25/4/1 22/4/1 24/4/1
f 26/1/1 24/1/1 23/1/1
f 26/1/1 25/1/1 24/1/1
f 27/1/1 25/1/1 26/1/1
f 28/1/1 25/1/1 27/1/1
f 29/1/1 25/1/1 28/1/1
f 30/1/1 25/1/1 29/1/1
f 31/1/1 25/1/1 30/1/1
f 32/5/1 27/5/1 26/5/1
f 33/5/1 27/5/1 32/5/1
f 34/5/1 27/5/1 33/5/1
f 35/1/1 28/1/1 27/1/1
f 35/5/1 27/5/1 34/5/1
f 36/5/1 29/5/1 28/5/1
f 36/1/1 28/1/1 35/1/1
f 37/1/1 30/1/1 29/1/1
f 37/5/1 29/5/1 36/5/1
f 38/5/1 31/5/1 30/5/1
f 38/1/1 30/1/1 37/1/1
f 39/5/1 32/5/1 26/5/1
f 39/6/1 33/6/1 32/6/1
f 40/5/1 34/5/1 33/5/1
f 40/6/1 33/6/1 39/6/1
f 41/1/1 35/1/1 34/1/1
f 41/5/1 34/5/1 40/5/1
f 42/5/1 36/5/1 35/5/1
f 42/1/1 35/1/1 41/1/1
f 43/1/1 37/1/1 36/1/1
f 43/5/1 36/5/1 42/5/1
f 44/5/1 38/5/1 37/5/1
f 44/1/1 37/1/1 43/1/1
f 45/5/1 39/5/1 26/5/1
f 46/5/1 39/5/1 45/5/1
f 47/1/1 41/1/1 40/1/1
f 48/5/1 42/5/1 41/5/1
f 48/1/1 41/1/1 47/1/1
f 49/1/1 43/1/1 42/1/1
f 49/5/1 42/5/1 48/5/1
f 50/5/1 44/5/1 43/5/1
f 50/1/1 43/1/1 49/1/1
f 51/5/1 38/5/1 44/5/1
f 51/5/1 44/5/1 50/5/1
f 51/5/1 31/5/1 38/5/1
f 52/5/1 31/5/1 51/5/1
f 53/3/1 52/3/1 51/3/1
f 54/3/1 52/3/1 53/3/1
f 57/4/1 56/4/1 55/4/1
f 58/4/1 56/4/1 57/4/1
f 62/3/1 58/3/1 57/3/1
f 63/3/1 58/3/1 62/3/1
f 64/4/1 60/4/1 59/4/1
f 65/4/1 60/4/1 64/4/1
f 66/3/1 62/3/1 61/3/1
f 67/3/1 62/3/1 66/3/1
f 80/4/1 64/4/1 59/4/1
f 81/4/1 64/4/1 80/4/1
f 82/4/1 60/4/1 65/4/1
f 83/4/1 60/4/1 82/4/1
f 84/4/1 69/4/1 68/4/1
f 85/5/1 70/5/1 69/5/1
f 85/4/1 69/4/1 84/4/1
f 86/4/1 71/4/1 70/4/1
f 86/5/1 70/5/1 85/5/1
f 87/5/1 72/5/1 71/5/1
f 87/4/1 71/4/1 86/4/1
f 88/4/1 73/4/1 72/4/1
f 88/5/1 72/5/1 87/5/1
f 89/5/1 74/5/1 73/5/1
f 89/4/1 73/4/1 88/4/1
f 90/4/1 75/4/1 74/4/1
f 90/5/1 74/5/1 89/5/1
f 91/5/1 76/5/1 75/5/1
f 91/4/1 75/4/1 90/4/1
f 92/4/1 77/4/1 76/4/1
f 92/5/1 76/5/1 91/5/1
f 93/5/1 78/5/1 77/5/1
f 93/4/1 77/4/1 92/4/1
f 94/4/1 79/4/1 78/4/1
f 94/5/1 78/5/1 93/5/1
f 95/4/1 79/4/1 94/4/1
f 98/6/1 97/6/1 96/6/1
f 99/6/1 97/6/1 98/6/1
f 104/6/1 101/6/1 100/6/1
f 105/6/1 101/6/1 104/6/1
f 106/3/1 103/3/1 102/3/1
f 107/3/1 103/3/1 106/3/1
f 110/3/1 109/3/1 108/3/1
f 111/3/1 109/3/1 110/3/1
f 112/3/2 113/3/2 114/3/2
f 114/3/2 113/3/2 115/3/2
f 116/4/2 117/4/2 118/4/2
f 118/4/2 117/4/2 119/4/2
f 118/3/2 119/3/2 123/3/2
f 123/3/2 119/3/2 124/3/2
f 120/4/2 121/4/2 125/4/2
f 125/4/2 121/4/2 126/4/2
f 122/3/2 123/3/2 127/3/2
f 127/3/2 123/3/2 128/3/2
f 120/4/2 125/4/2 141/4/2
f 141/4/2 125/4/2 142/4/2
f 126/4/2 121/4/2 143/4/2
f 143/4/2 121/4/2 144/4/2
f 129/4/2 130/4/2 145/4/2
f 130/5/2 131/5/2 146/5/2
f 145/4/2 130/4/2 146/4/2
f 131/4/2 132/4/2 147/4/2
f 146/5/2 131/5/2 147/5/2
f 132/5/2 133/5/2 148/5/2
f 147/4/2 132/4/2 148/4/2
f 133/4/2 134/4/2 149/4/2
f 148/5/2 133/5/2 149/5/2
f 134/5/2 135/5/2 150/5/2
f 149/4/2 134/4/2 150/4/2
f 135/4/2 136/4/2 151/4/2
f 150/5/2 135/5/2 151/5/2
f 136/5/2 137/5/2 152/5/2
f 151/4/2 136/4/2 152/4/2
f 137/4/2 138/4/2 153/4/2
f 152/5/2 137/5/2 153/5/2
f 138/5/2 139/5/2 154/5/2
f 153/4/2 138/4/2 154/4/2
f 139/4/2 140/4/2 155/4/2
f 154/5/2 139/5/2 155/5/2
f 155/4/2 140/4/2 156/4/2
f 157/6/2 158/6/2 159/6/2
f 159/6/2 158/6/2 160/6/2
f 161/3/2 162/3/2 163/3/2
f 163/3/2 162/3/2 164/3/2
f 165/3/2 166/3/2 167/3/2
f 167/3/2 166/3/2 168/3/2
f 168/3/2 166/3/2 169/3/2
f 169/3/2 166/3/2 170/3/2
f 168/4/2 169/4/2 171/4/2
f 171/4/2 169/4/2 172/4/2
f 171/3/2 172/3/2 173/3/2
f 172/4/2 169/4/2 174/4/2
f 173/3/2 172/3/2 174/3/2
f 168/4/2 171/4/2 176/4/2
f 174/4/2 169/4/2 177/4/2
f 173/4/2 174/4/2 177/4/2
f 177/4/2 169/4/2 178/4/2
f 175/4/2 176/4/2 179/4/2
f 176/4/2 171/4/2 179/4/2
f 171/3/2 173/3/2 180/3/2
f 179/4/2 171/4/2 180/4/2
f 175/4/2 179/4/2 182/4/2
f 179/3/2 180/3/2 183/3/2
f 182/4/2 179/4/2 183/4/2
f 180/3/2 173/3/2 184/3/2
f 183/3/2 180/3/2 184/3/2
f 173/4/2 177/4/2 184/4/2
f 184/4/2 177/4/2 185/4/2
f 182/4/2 183/4/2 188/4/2
f 185/4/2 186/4/2 188/4/2
f 184/4/2 185/4/2 188/4/2
f 183/4/2 184/4/2 188/4/2
f 181/4/2 182/4/2 188/4/2
f 188/4/2 186/4/2 189/4/2
f 187/1/2 188/1/2 190/1/2
f 188/1/2 189/1/2 190/1/2
f 190/1/2 189/1/2 191/1/2
f 191/1/2 189/1/2 192/1/2
f 192/1/2 189/1/2 193/1/2
f 193/1/2 189/1/2 194/1/2
f 194/1/2 189/1/2 195/1/2
f 190/5/2 191/5/2 196/5/2
f 191/1/2 192/1/2 197/1/2
f 196/5/2 191/5/2 197/5/2
f 192/5/2 193/5/2 198/5/2
f 197/1/2 192/1/2 198/1/2
f 193/1/2 194/1/2 199/1/2
f 198/5/2 193/5/2 199/5/2
f 194/5/2 195/5/2 200/5/2
f 199/1/2 194/1/2 200/1/2
f 190/5/2 196/5/2 201/5/2
f 196/1/2 197/1/2 202/1/2
f 201/5/2 196/5/2 202/5/2
f 197/5/2 198/5/2 203/5/2
f 202/1/2 197/1/2 203/1/2
f 198/1/2 199/1/2 204/1/2
f 203/5/2 198/5/2 204/5/2
f 199/5/2 200/5/2 205/5/2
f 204/1/2 199/1/2 205/1/2
f 190/5/2 201/5/2 206/5/2
f 201/1/2 202/1/2 207/1/2
f 206/5/2 201/5/2 207/5/2
f 202/5/2 203/5/2 208/5/2
f 207/1/2 202/1/2 208/1/2
f 203/1/2 204/1/2 209/1/2
f 208/5/2 203/5/2 209/5/2
f 204/5/2 205/5/2 210/5/2
f 209/1/2 204/1/2 210/1/2
f 200/5/2 195/5/2 211/5/2
f 210/5/2 205/5/2 211/5/2
f 205/5/2 200/5/2 211/5/2
f 211/5/2 195/5/2 212/5/2
f 211/3/2 212/3/2 213/3/2
f 213/3/2 212/3/2 214/3/2
f 217/6/3 216/6/3 215/6/3
f 218/6/3 216/6/3 217/6/3
f 223/1/3 220/1/3 219/1/3
f 224/5/3 221/5/3 220/5/3
f 224/1/3 220/1/3 223/1/3
f 225/5/3 221/5/3 224/5/3
f 226/5/3 221/5/3 225/5/3
f 228/4/3 223/4/3 222/4/3
f 229/5/3 224/5/3 223/5/3
f 229/4/3 223/4/3 228/4/3
f 230/5/3 224/5/3 229/5/3
f 231/5/3 226/5/3 225/5/3
f 232/3/3 227/3/3 226/3/3
f 232/5/3 226/5/3 231/5/3
f 233/3/3 227/3/3 232/3/3
f 234/1/3 230/1/3 229/1/3
f 235/5/3 231/5/3 230/5/3
f 235/1/3 230/1/3 234/1/3
f 235/5/3 232/5/3 231/5/3
f 236/5/3 232/5/3 235/5/3
f 239/4/3 238/4/3 237/4/3
f 240/4/3 238/4/3 239/4/3
f 243/4/3 242/4/3 241/4/3
f 244/4/3 242/4/3 243/4/3
f 247/4/3 246/4/3 245/4/3
f 248/4/3 246/4/3 247/4/3
f 251/4/3 250/4/3 249/4/3
f 252/4/3 250/4/3 251/4/3
f 259/4/3 256/4/3 255/4/3
f 260/4/3 256/4/3 259/4/3
f 261/1/3 258/1/3 257/1/3
f 262/1/3 258/1/3 261/1/3
f 265/3/3 254/3/3 253/3/3
f 266/3/3 254/3/3 265/3/3
f 267/4/3 264/4/3 263/4/3
f 268/4/3 264/4/3 267/4/3
f 271/4/3 270/4/3 269/4/3
f 272/4/3 270/4/3 271/4/3
f 275/3/3 274/3/3 273/3/3
f 276/3/3 274/3/3 275/3/3
f 279/3/3 278/3/3 277/3/3
f 280/3/3 278/3/3 279/3/3
f 281/3/4 282/3/4 283/3/4
f 283/3/4 282/3/4 284/3/4
f 285/5/4 286/5/4 287/5/4
f 287/5/4 286/5/4 288/5/4
f 289/4/4 290/4/4 291/4/4
f 291/4/4 290/4/4 292/4/4
f 293/4/4 294/4/4 295/4/4
f 295/4/4 294/4/4 296/4/4
f 296/4/4 294/4/4 297/4/4
f 296/3/4 297/3/4 299/3/4
f 299/3/4 297/3/4 300/3/4
f 298/4/4 299/4/4 301/4/4
f 299/4/4 300/4/4 301/4/4
f 301/4/4 300/4/4 302/4/4
f 303/4/4 304/4/4 310/4/4
f 310/4/4 304/4/4 311/4/4
f 311/4/4 304/4/4 312/4/4
f 305/4/4 306/4/4 314/4/4
f 306/1/4 307/1/4 314/1/4
f 307/5/4 308/5/4 315/5/4
f 314/1/4 307/1/4 315/1/4
f 315/5/4 308/5/4 316/5/4
f 308/3/4 309/3/4 317/3/4
f 316/5/4 308/5/4 317/5/4
f 317/3/4 309/3/4 318/3/4
f 312/3/4 313/3/4 321/3/4
f 321/3/4 313/3/4 322/3/4
f 305/4/4 314/4/4 323/4/4
f 314/5/4 315/5/4 323/5/4
f 315/3/4 316/3/4 324/3/4
f 323/5/4 315/5/4 324/5/4
f 316/5/4 317/5/4 325/5/4
f 324/3/4 316/3/4 325/3/4
f 325/5/4 317/5/4 326/5/4
f 319/4/4 320/4/4 328/4/4
f 320/4/4 321/4/4 328/4/4
f 328/4/4 321/4/4 329/4/4
f 305/4/4 323/4/4 330/4/4
f 323/1/4 324/1/4 331/1/4
f 330/4/4 323/4/4 331/4/4
f 325/5/4 326/5/4 332/5/4
f 331/1/4 324/1/4 332/1/4
f 324/5/4 325/5/4 332/5/4
f 326/3/4 327/3/4 333/3/4
f 332/5/4 326/5/4 333/5/4
f 333/3/4 327/3/4 334/3/4
f 335/3/4 336/3/4 337/3/4
f 335/3/4 337/3/4 340/3/4
f 337/4/4 338/4/4 340/4/4
f 338/3/4 339/3/4 341/3/4
f 340/4/4 338/4/4 341/4/4
f 341/3/4 339/3/4 342/3/4
f 335/3/4 340/3/4 343/3/4
f 343/3/4 340/3/4 344/3/4
f 347/3/5 346/3/5 345/3/5
f 348/3/5 346/3/5 347/3/5
f 349/3/5 347/3/5 345/3/5
f 349/4/5 348/4/5 347/4/5
f 350/3/5 346/3/5 348/3/5
f 350/4/5 348/4/5 349/4/5
f 351/3/5 349/3/5 345/3/5
f 351/2/5 350/2/5 349/2/5
f 352/3/5 346/3/5 350/3/5
f 352/2/5 350/2/5 351/2/5
f 353/3/5 351/3/5 345/3/5
f 353/3/5 352/3/5 351/3/5
f 354/3/5 346/3/5 352/3/5
f 354/3/5 352/3/5 353/3/5
f 358/4/5 356/4/5 355/4/5
f 359/4/5 356/4/5 358/4/5
f 361/4/5 358/4/5 357/4/5
f 361/4/5 360/4/5 359/4/5
f 361/4/5 359/4/5 358/4/5
f 362/4/5 360/4/5 361/4/5
f 365/4/5 364/4/5 363/4/5
f 366/4/5 364/4/5 365/4/5
f 367/5/5 366/5/5 365/5/5
f 368/5/5 366/5/5 367/5/5
f 369/4/5 368/4/5 367/4/5
f 370/4/5 368/4/5 369/4/5
f 371/5/5 370/5/5 369/5/5
f 372/5/5 370/5/5 371/5/5
f 373/4/5 372/4/5 371/4/5
f 374/4/5 372/4/5 373/4/5
f 375/5/5 374/5/5 373/5/5
f 376/5/5 374/5/5 375/5/5
f 377/4/5 376/4/5 375/4/5
f 378/4/5 376/4/5 377/4/5
f 379/5/5 378/5/5 377/5/5
f 380/5/5 378/5/5 379/5/5
f 381/4/5 380/4/5 379/4/5
f 382/4/5 380/4/5 381/4/5
f 383/5/5 382/5/5 381/5/5
f 384/5/5 382/5/5 383/5/5
f 386/4/5 384/4/5 383/4/5
f 387/4/5 384/4/5 386/4/5
f 389/4/5 387/4/5 386/4/5
f 389/4/5 388/4/5 387/4/5
f 389/4/5 386/4/5 385/4/5
f 390/4/5 388/4/5 389/4/5
f 391/4/5 389/4/5 385/4/5
f 392/4/5 388/4/5 390/4/5
f 393/4/5 391/4/5 385/4/5
f 393/4/5 392/4/5 391/4/5
f 394/4/5 388/4/5 392/4/5
f 394/4/5 392/4/5 393/4/5
f 395/4/5 393/4/5 385/4/5
f 396/4/5 393/4/5 395/4/5
f 397/4/5 388/4/5 394/4/5
f 398/4/5 388/4/5 397/4/5
f 403/4/5 400/4/5 399/4/5
f 403/4/5 402/4/5 401/4/5
f 403/4/5 401/4/5 400/4/5
f 404/4/5 402/4/5 403/4/5
f 409/1/5 406/1/5 405/1/5
f 410/1/5 408/1/5 407/1/5
f 411/1/5 409/1/5 405/1/5
f 412/1/5 408/1/5 410/1/5
f 413/1/5 411/1/5 405/1/5
f 414/1/5 408/1/5 412/1/5
f 415/1/5 413/1/5 405/1/5
f 416/1/5 408/1/5 414/1/5
f 417/1/5 415/1/5 405/1/5
f 418/1/5 408/1/5 416/1/5
f 419/1/5 417/1/5 405/1/5
f 420/1/5 408/1/5 418/1/5
f 421/1/5 419/1/5 405/1/5
f 422/1/5 408/1/5 420/1/5
f 423/1/5 421/1/5 405/1/5
f 424/1/5 408/1/5 422/1/5
f 425/1/5 423/1/5 405/1/5
f 426/1/5 408/1/5 424/1/5
f 427/1/5 425/1/5 405/1/5
f 428/1/5 408/1/5 426/1/5
f 429/1/5 427/1/5 405/1/5
f 430/1/5 427/1/5 429/1/5
f 431/1/5 408/1/5 428/1/5
f 432/1/5 408/1/5 431/1/5
f 435/6/5 434/6/5 433/6/5
f 436/6/5 434/6/5 435/6/5
f 437/3/6 438/3/6 439/3/6
f 439/3/6 438/3/6 440/3/6
f 441/3/6 442/3/6 445/3/6
f 445/3/6 442/3/6 446/3/6
f 443/3/6 444/3/6 447/3/6
f 447/3/6 444/3/6 448/3/6
f 449/4/6 450/4/6 453/4/6
f 453/4/6 450/4/6 454/4/6
f 451/4/6 452/4/6 455/4/6
f 455/4/6 452/4/6 456/4/6
f 454/3/6 455/3/6 457/3/6
f 457/3/6 455/3/6 458/3/6
f 459/4/6 460/4/6 461/4/6
f 461/4/6 460/4/6 462/4/6
f 463/3/6 464/3/6 465/3/6
f 465/3/6 464/3/6 466/3/6
f 467/6/6 468/6/6 469/6/6
f 469/6/6 468/6/6 470/6/6
f 471/6/6 472/6/6 473/6/6
f 473/6/6 472/6/6 474/6/6
f 475/5/6 476/5/6 479/5/6
f 477/5/6 478/5/6 480/5/6
f 475/5/6 479/5/6 481/5/6
f 479/5/6 480/5/6 481/5/6
f 481/5/6 480/5/6 482/5/6
f 482/5/6 480/5/6 483/5/6
f 482/6/6 483/6/6 485/6/6
f 483/5/6 480/5/6 486/5/6
f 485/6/6 483/6/6 486/6/6
f 480/5/6 478/5/6 487/5/6
f 486/5/6 480/5/6 487/5/6
f 487/5/6 478/5/6 488/5/6
f 484/1/6 485/1/6 489/1/6
f 485/5/6 486/5/6 490/5/6
f 489/1/6 485/1/6 490/1/6
f 486/5/6 487/5/6 490/5/6
f 487/1/6 488/1/6 491/1/6
f 490/5/6 487/5/6 491/5/6
f 491/1/6 488/1/6 492/1/6
f 489/5/6 490/5/6 493/5/6
f 490/5/6 491/5/6 493/5/6
f 491/5/6 492/5/6 493/5/6
f 493/5/6 492/5/6 494/5/6
f 494/5/6 492/5/6 495/5/6
f 495/5/6 492/5/6 496/5/6
f 493/1/6 494/1/6 497/1/6
f 494/5/6 495/5/6 498/5/6
f 497/1/6 494/1/6 498/1/6
f 495/1/6 496/1/6 499/1/6
f 498/5/6 495/5/6 499/5/6
f 499/1/6 496/1/6 500/1/6
f 497/5/6 498/5/6 501/5/6
f 498/5/6 499/5/6 501/5/6
f 499/5/6 500/5/6 501/5/6
f 501/5/6 500/5/6 502/5/6
f 502/5/6 500/5/6 503/5/6
f 503/5/6 500/5/6 504/5/6
f 502/5/6 503/5/6 505/5/6
f 505/5/6 503/5/6 506/5/6
f 507/3/6 508/3/6 509/3/6
f 509/3/6 508/3/6 510/3/6
f 511/3/6 512/3/6 515/3/6
f 515/3/6 512/3/6 516/3/6
f 513/3/6 514/3/6 517/3/6
f 517/3/6 514/3/6 518/3/6
