{"accessors":[{"bufferView":0,"byteOffset":0,"componentType":5126,"count":1852,"max":[0.78881573677063,1.13651013374329,0.900211811065674],"min":[-0.81673747301102,-0.00012449533097,-1.01974821090698],"normalized":false,"type":"VEC3"},{"bufferView":1,"byteOffset":0,"componentType":5126,"count":1852,"max":[1,0.885869443416595,0.999999642372131,1],"min":[-0.99844920635223,-0.88590008020401,-0.98498892784119,-1],"normalized":false,"type":"VEC4"},{"bufferView":2,"byteOffset":0,"componentType":5126,"count":1852,"max":[1,1,1],"min":[-1,-1,-1],"normalized":false,"type":"VEC3"},{"bufferView":3,"byteOffset":0,"componentType":5126,"count":1852,"max":[0.854213237762451,0.970498919487],"min":[0.020389199256897,0.031146764755249],"normalized":false,"type":"VEC2"},{"bufferView":4,"byteOffset":0,"componentType":5123,"count":3378,"max":[1851],"min":[0],"normalized":false,"type":"SCALAR"},{"bufferView":5,"byteOffset":0,"componentType":5126,"count":586,"max":[0.119000323116779,0.188415214419365,0.292879104614258],"min":[-0.11899968236685,-0.00000002980232,-0.21280054748058],"normalized":false,"type":"VEC3"},{"bufferView":6,"byteOffset":0,"componentType":5126,"count":586,"max":[1,0.380048602819443,0.0000152592547237873,1],"min":[-1,-0.51199287176132,-1,-1],"normalized":false,"type":"VEC4"},{"bufferView":7,"byteOffset":0,"componentType":5126,"count":586,"max":[1,1,1],"min":[-1,-1,-1],"normalized":false,"type":"VEC3"},{"bufferView":8,"byteOffset":0,"componentType":5126,"count":586,"max":[0.832340359687805,0.233267426490784],"min":[0.268339991569519,0.0755887627601624],"normalized":false,"type":"VEC2"},{"bufferView":9,"byteOffset":0,"componentType":5123,"count":1188,"max":[519],"min":[0],"normalized":false,"type":"SCALAR"},{"bufferView":10,"byteOffset":0,"componentType":5126,"count":575,"max":[0.210541695356369,0.279997438192368,0.180788666009903],"min":[-0.21055184304714,-0.00000041723251,-0.17706181108952],"normalized":false,"type":"VEC3"},{"bufferView":11,"byteOffset":0,"componentType":5126,"count":575,"max":[1,0.252897500991821,-0.00001525902189,1],"min":[-0.90434300899506,-0.25289243459702,-0.99999433755875,-1],"normalized":false,"type":"VEC4"},{"bufferView":12,"byteOffset":0,"componentType":5126,"count":575,"max":[0.999994277954102,1,0.998491764068604],"min":[-0.9999942779541,-1,-0.99979794025421],"normalized":false,"type":"VEC3"},{"bufferView":13,"byteOffset":0,"componentType":5126,"count":575,"max":[0.325639426708221,0.173636078834534],"min":[0.268102943897247,0.0607354640960693],"normalized":false,"type":"VEC2"},{"bufferView":14,"byteOffset":0,"componentType":5123,"count":660,"max":[319],"min":[0],"normalized":false,"type":"SCALAR"},{"bufferView":15,"byteOffset":0,"componentType":5126,"count":35,"max":[0.14910900592804,0.0693010166287422,0.126839712262154],"min":[-0.14910900592804,0,-0.15678249299526],"normalized":false,"type":"VEC3"},{"bufferView":16,"byteOffset":0,"componentType":5126,"count":35,"max":[1,0.000033944845199585,0.951042890548706,1],"min":[0.309039682149887,-0.00006926059723,-0.95104914903641,-1],"normalized":false,"type":"VEC4"},{"bufferView":17,"byteOffset":0,"componentType":5126,"count":35,"max":[0.826092422008514,1,0.868590593338013],"min":[-0.82604336738586,-1,-0.70268988609314],"normalized":false,"type":"VEC3"},{"bufferView":18,"byteOffset":0,"componentType":5126,"count":35,"max":[0.298954755067825,0.681986749172211],"min":[0.279499500989914,0.598092615604401],"normalized":false,"type":"VEC2"},{"bufferView":19,"byteOffset":0,"componentType":5123,"count":54,"max":[34],"min":[0],"normalized":false,"type":"SCALAR"},{"bufferView":20,"byteOffset":0,"componentType":5126,"count":46,"max":[0.144638672471046,0.134585469961166,0.121746629476547],"min":[-0.14197711646557,-0.00000000096812,-0.12800288200378],"normalized":false,"type":"VEC3"},{"bufferView":21,"byteOffset":0,"componentType":5126,"count":46,"max":[1,0.170300677418709,0.928952813148499,1],"min":[0.138341069221497,-0.01042911410332,-0.97759002447128,-1],"normalized":false,"type":"VEC4"},{"bufferView":22,"byteOffset":0,"componentType":5126,"count":46,"max":[0.88751631975174,1,0.890456736087799],"min":[-0.8603886961937,-1,-0.93750602006912],"normalized":false,"type":"VEC3"},{"bufferView":23,"byteOffset":0,"componentType":5126,"count":46,"max":[0.281818866729736,0.681986749172211],"min":[0.26311132311821,0.563225746154785],"normalized":false,"type":"VEC2"},{"bufferView":24,"byteOffset":0,"componentType":5123,"count":78,"max":[45],"min":[0],"normalized":false,"type":"SCALAR"}],"asset":{"generator":"Godot Engine v4.3.stable.official@77dcf97d82cbfe4e4615475fa52ca03da645dbd8","version":"2.0"},"bufferViews":[{"buffer":0,"byteLength":22224,"byteOffset":0,"byteStride":12,"target":34962},{"buffer":0,"byteLength":29632,"byteOffset":22224,"byteStride":16,"target":34962},{"buffer":0,"byteLength":22224,"byteOffset":51856,"byteStride":12,"target":34962},{"buffer":0,"byteLength":14816,"byteOffset":74080,"byteStride":8,"target":34962},{"buffer":0,"byteLength":6756,"byteOffset":88896,"target":34963},{"buffer":0,"byteLength":7032,"byteOffset":95652,"byteStride":12,"target":34962},{"buffer":0,"byteLength":9376,"byteOffset":102684,"byteStride":16,"target":34962},{"buffer":0,"byteLength":7032,"byteOffset":112060,"byteStride":12,"target":34962},{"buffer":0,"byteLength":4688,"byteOffset":119092,"byteStride":8,"target":34962},{"buffer":0,"byteLength":2376,"byteOffset":123780,"target":34963},{"buffer":0,"byteLength":6900,"byteOffset":126156,"byteStride":12,"target":34962},{"buffer":0,"byteLength":9200,"byteOffset":133056,"byteStride":16,"target":34962},{"buffer":0,"byteLength":6900,"byteOffset":142256,"byteStride":12,"target":34962},{"buffer":0,"byteLength":4600,"byteOffset":149156,"byteStride":8,"target":34962},{"buffer":0,"byteLength":1320,"byteOffset":153756,"target":34963},{"buffer":0,"byteLength":420,"byteOffset":155076,"byteStride":12,"target":34962},{"buffer":0,"byteLength":560,"byteOffset":155496,"byteStride":16,"target":34962},{"buffer":0,"byteLength":420,"byteOffset":156056,"byteStride":12,"target":34962},{"buffer":0,"byteLength":280,"byteOffset":156476,"byteStride":8,"target":34962},{"buffer":0,"byteLength":108,"byteOffset":156756,"target":34963},{"buffer":0,"byteLength":552,"byteOffset":156864,"byteStride":12,"target":34962},{"buffer":0,"byteLength":736,"byteOffset":157416,"byteStride":16,"target":34962},{"buffer":0,"byteLength":552,"byteOffset":158152,"byteStride":12,"target":34962},{"buffer":0,"byteLength":368,"byteOffset":158704,"byteStride":8,"target":34962},{"buffer":0,"byteLength":156,"byteOffset":159072,"target":34963}],"buffers":[{"byteLength":159228,"uri":"StoneMine0.bin"}],"extensionsUsed":["GODOT_single_root"],"images":[{"uri":"textures%2Fhexagons_medieval_albedo000.png"},{"uri":"textures%2Fhexagons_medieval_albedo002.png"},{"uri":"textures%2Fhexagons_medieval_albedo003.png"},{"uri":"textures%2Fhexagons_medieval_albedo004.png"},{"uri":"textures%2Fhexagons_medieval_albedo005.png"}],"materials":[{"extensions":{},"name":"hexagons_medieval","pbrMetallicRoughness":{"baseColorFactor":[0.99999988079071,0.99999988079071,0.99999988079071,1],"baseColorTexture":{"index":0},"metallicFactor":0,"roughnessFactor":0.5}},{"extensions":{},"name":"hexagons_medieval2","pbrMetallicRoughness":{"baseColorFactor":[0.99999988079071,0.99999988079071,0.99999988079071,1],"baseColorTexture":{"index":1},"metallicFactor":0,"roughnessFactor":0.5}},{"extensions":{},"name":"hexagons_medieval3","pbrMetallicRoughness":{"baseColorFactor":[0.99999988079071,0.99999988079071,0.99999988079071,1],"baseColorTexture":{"index":2},"metallicFactor":0,"roughnessFactor":0.5}},{"extensions":{},"name":"hexagons_medieval4","pbrMetallicRoughness":{"baseColorFactor":[0.99999988079071,0.99999988079071,0.99999988079071,1],"baseColorTexture":{"index":3},"metallicFactor":0,"roughnessFactor":0.5}},{"extensions":{},"name":"hexagons_medieval5","pbrMetallicRoughness":{"baseColorFactor":[0.99999988079071,0.99999988079071,0.99999988079071,1],"baseColorTexture":{"index":4},"metallicFactor":0,"roughnessFactor":0.5}}],"meshes":[{"extras":{"targetNames":[]},"primitives":[{"attributes":{"NORMAL":2,"POSITION":0,"TANGENT":1,"TEXCOORD_0":3},"indices":4,"material":0,"mode":4}]},{"extras":{"targetNames":[]},"primitives":[{"attributes":{"NORMAL":7,"POSITION":5,"TANGENT":6,"TEXCOORD_0":8},"indices":9,"material":1,"mode":4}]},{"extras":{"targetNames":[]},"primitives":[{"attributes":{"NORMAL":12,"POSITION":10,"TANGENT":11,"TEXCOORD_0":13},"indices":14,"material":2,"mode":4}]},{"extras":{"targetNames":[]},"primitives":[{"attributes":{"NORMAL":17,"POSITION":15,"TANGENT":16,"TEXCOORD_0":18},"indices":19,"material":3,"mode":4}]},{"extras":{"targetNames":[]},"primitives":[{"attributes":{"NORMAL":22,"POSITION":20,"TANGENT":21,"TEXCOORD_0":23},"indices":24,"material":4,"mode":4}]}],"nodes":[{"children":[1,2,6,8],"name":"building_mine_blue2"},{"mesh":0,"name":"building_mine_blue"},{"children":[3,4],"name":"wheelbarrow2","rotation":[0,-0.14905212819576,0,0.98882931470871],"translation":[-0.32232666015625,0,0.779541015625]},{"mesh":1,"name":"wheelbarrow"},{"children":[5],"name":"resource_stone2","rotation":[0.0868046879768372,-0.019530499354,0.00542604085057974,0.996019124984741],"scale":[0.300000011920929,0.300000011920929,0.540000021457672],"translation":[-0.00064389407635,0.12652587890625,-0.0260124206543]},{"mesh":2,"name":"resource_stone"},{"children":[7],"name":"rock_single_A2","translation":[-0.680415391922,0,0.7723388671875]},{"mesh":3,"name":"rock_single_A"},{"children":[9],"name":"rock_single_B2","rotation":[0,-0.10538762062788,0,0.99443119764328],"scale":[1.5,1.5,1.5],"translation":[0.603759765625,0,0.72332763671875]},{"mesh":4,"name":"rock_single_B"}],"samplers":[{"magFilter":9729,"minFilter":9987,"wrapS":10497,"wrapT":10497}],"scene":0,"scenes":[{"nodes":[0]}],"textures":[{"sampler":0,"source":0},{"sampler":0,"source":1},{"sampler":0,"source":2},{"sampler":0,"source":3},{"sampler":0,"source":4}]}